<?xml version="1.0" standalone="no"?>
<!DOCTYPE svg PUBLIC "-//W3C//DTD SVG 20010904//EN"
 "http://www.w3.org/TR/2001/REC-SVG-20010904/DTD/svg10.dtd">
<svg version="1.0" xmlns="http://www.w3.org/2000/svg"
 width="512.000000pt" height="512.000000pt" viewBox="0 0 512.000000 512.000000"
 preserveAspectRatio="xMidYMid meet">
<metadata>
Created by potrace 1.14, written by Peter Selinger 2001-2017
</metadata>
<g transform="translate(0.000000,512.000000) scale(0.100000,-0.100000)"
fill="#000000" stroke="none">
<path d="M2378 4955 c-1 -1 -32 -6 -68 -9 -142 -15 -365 -59 -438 -88 -15 -5
-36 -12 -47 -14 -35 -6 -221 -82 -313 -126 -658 -318 -1141 -932 -1296 -1648
-14 -63 -28 -140 -31 -170 -4 -30 -10 -82 -15 -115 -9 -65 -7 -475 2 -491 3
-5 9 -36 12 -69 4 -33 9 -67 11 -75 2 -8 7 -31 10 -50 44 -264 190 -619 357
-868 51 -77 120 -169 154 -208 11 -12 46 -52 79 -89 159 -181 409 -372 655
-502 132 -70 405 -175 511 -197 13 -3 33 -7 44 -10 61 -14 166 -35 205 -40 25
-3 68 -9 95 -13 127 -17 513 -7 634 17 25 5 60 11 76 14 103 15 291 71 438
130 432 173 798 463 1071 849 42 59 76 110 76 113 0 3 8 18 19 32 54 78 158
301 212 457 27 79 71 243 83 305 19 110 24 144 33 219 10 87 9 419 -1 501 -4
36 -10 83 -12 105 -16 144 -108 457 -181 615 -38 84 -111 227 -136 265 -185
294 -383 510 -646 704 -304 224 -712 390 -1071 437 -25 3 -56 8 -70 11 -27 5
-446 13 -452 8z m-413 -1380 c28 -4 57 -8 65 -10 114 -25 292 -57 355 -63 123
-13 329 -6 450 15 17 2 39 6 50 7 26 4 106 17 125 22 136 30 176 36 235 36
187 0 348 -70 480 -209 57 -61 120 -182 146 -279 11 -44 26 -101 33 -129 14
-49 116 -417 136 -485 112 -389 113 -394 114 -480 2 -341 -353 -564 -659 -415
-38 19 -84 47 -100 62 -17 15 -77 68 -135 118 -58 49 -107 92 -110 95 -25 29
-365 312 -382 319 -31 12 -409 8 -430 -4 -9 -6 -31 -23 -50 -40 -18 -16 -80
-70 -138 -120 -58 -49 -118 -102 -135 -117 -16 -15 -81 -71 -144 -125 -63 -54
-129 -111 -145 -126 -39 -35 -137 -83 -201 -97 -285 -64 -556 150 -558 440 -1
73 6 110 52 270 29 102 54 192 56 200 2 8 34 123 71 255 36 132 80 290 96 350
41 152 85 233 178 326 108 109 226 169 365 185 28 4 51 7 52 8 4 3 69 -2 128
-9z"/>
<path d="M1756 3222 c-50 -6 -59 -24 -60 -130 l-2 -97 -98 -2 c-74 -1 -102 -5
-114 -17 -12 -12 -15 -42 -16 -150 -1 -176 -1 -176 134 -176 l96 0 -1 -92 c-1
-83 1 -95 21 -114 20 -21 30 -22 157 -20 96 1 140 5 149 14 8 8 14 44 15 95 1
45 2 90 2 100 1 15 13 17 94 17 134 1 132 -2 132 170 0 176 3 172 -129 173
l-96 1 -1 41 c-1 22 -1 63 -1 90 1 86 -9 93 -140 97 -62 2 -126 2 -142 0z
m165 -121 c1 -3 2 -42 3 -86 2 -91 10 -120 34 -130 9 -3 56 -6 104 -6 l88 0 0
-57 0 -58 -82 1 c-94 1 -137 -9 -140 -33 -1 -10 -2 -51 -4 -92 -1 -41 -2 -82
-3 -91 -1 -12 -12 -15 -48 -13 -27 1 -51 2 -55 3 -5 0 -8 43 -8 95 0 73 -4 98
-16 110 -18 18 -20 18 -129 20 l-80 1 -3 57 -3 57 92 0 c66 0 98 5 115 16 13
8 23 19 23 23 -1 4 -1 49 0 100 l1 93 55 -2 c30 -1 55 -5 56 -8z"/>
<path d="M3179 3196 c-44 -30 -63 -73 -56 -126 10 -80 81 -131 160 -116 37 7
84 47 98 84 46 121 -95 231 -202 158z"/>
<path d="M2931 2943 c-126 -62 -81 -257 60 -255 131 2 184 176 75 247 -34 22
-97 26 -135 8z"/>
<path d="M3461 2942 c-102 -52 -104 -186 -3 -238 106 -55 225 48 187 160 -15
44 -56 82 -98 90 -43 9 -48 8 -86 -12z"/>
<path d="M3210 2685 c-18 -6 -46 -26 -61 -44 -23 -29 -27 -42 -26 -87 2 -44 8
-59 31 -83 32 -33 79 -53 111 -46 11 2 25 4 32 4 25 2 73 54 84 92 32 105 -67
199 -171 164z"/>
</g>
</svg>
